<mxfile host="Electron" modified="2024-04-02T13:00:48.714Z" agent="Mozilla/5.0 (Windows NT 10.0; Win64; x64) AppleWebKit/537.36 (KHTML, like Gecko) draw.io/24.0.4 Chrome/120.0.6099.109 Electron/28.1.0 Safari/537.36" etag="CebkDQuTF3VgEJ31Vyud" version="24.0.4" type="device">
  <diagram name="Page-1" id="-YhFL41lz8R-kQNjG-jo">
    <mxGraphModel dx="989" dy="-141" grid="0" gridSize="10" guides="1" tooltips="1" connect="1" arrows="1" fold="1" page="0" pageScale="1" pageWidth="850" pageHeight="1100" background="#ffffff" math="0" shadow="0">
      <root>
        <mxCell id="0" />
        <mxCell id="1" parent="0" />
        <UserObject label="" tags="Background" id="9cTyA-aqXEUwl1eb3d1F-1">
          <mxCell style="vsdxID=7086;rotation=270;fillColor=#41719c;gradientColor=none;shape=stencil(nZBLDoAgDERP0z3SIyjew0SURgSD+Lu9kMZoXLhwN9O+tukAlrNpJg1SzDH4QW/URgNYgZTkjA4UkwJUgGXng+6DX1zLfmoymdXo17xh5zmRJ6Q42BWCfc2oJfdAr+Yv+AP9Cb7OJ3H/2JG1HNGz/84klThPVCc=);strokeColor=none;points=[];labelBackgroundColor=none;rounded=0;html=1;whiteSpace=wrap;" parent="1" vertex="1">
            <mxGeometry x="8" y="989" width="279" height="120" as="geometry" />
          </mxCell>
        </UserObject>
        <UserObject label="&lt;div style=&quot;font-size: 1px&quot;&gt;&lt;font style=&quot;font-size:14.11px;font-family:Segoe UI Semibold;color:#ffffff;direction:ltr;letter-spacing:0px;line-height:120%;opacity:1&quot;&gt;&lt;b&gt;Entra ID Tenant&lt;br&gt;&lt;/b&gt;&lt;/font&gt;&lt;/div&gt;" tags="Background" id="9cTyA-aqXEUwl1eb3d1F-2">
          <mxCell style="verticalAlign=middle;align=center;overflow=width;vsdxID=7087;fillColor=none;gradientColor=none;shape=stencil(nZBLDoAgDERP0z3SIyjew0SURgSD+Lu9kMZoXLhwN9O+tukAlrNpJg1SzDH4QW/URgNYgZTkjA4UkwJUgGXng+6DX1zLfmoymdXo17xh5zmRJ6Q42BWCfc2oJfdAr+Yv+AP9Cb7OJ3H/2JG1HNGz/84klThPVCc=);strokeColor=none;points=[];labelBackgroundColor=none;rounded=0;html=1;whiteSpace=wrap;" parent="1" vertex="1">
            <mxGeometry x="92" y="1073" width="110" height="20" as="geometry" />
          </mxCell>
        </UserObject>
        <UserObject label="" tags="Background" id="9cTyA-aqXEUwl1eb3d1F-3">
          <mxCell style="vsdxID=7088;fillColor=none;gradientColor=none;strokeColor=none;spacingTop=-3;spacingBottom=-3;spacingLeft=-3;spacingRight=-3;points=[];labelBackgroundColor=none;rounded=0;html=1;whiteSpace=wrap;" parent="1" vertex="1">
            <mxGeometry x="103" y="982" width="84" height="77" as="geometry" />
          </mxCell>
        </UserObject>
        <mxCell id="9cTyA-aqXEUwl1eb3d1F-4" style="vsdxID=7089;fillColor=none;gradientColor=none;strokeColor=none;spacingTop=-3;spacingBottom=-3;spacingLeft=-3;spacingRight=-3;points=[];labelBackgroundColor=none;rounded=0;html=1;whiteSpace=wrap;" parent="9cTyA-aqXEUwl1eb3d1F-3" vertex="1">
          <mxGeometry width="84" height="77" as="geometry" />
        </mxCell>
        <mxCell id="9cTyA-aqXEUwl1eb3d1F-5" style="vsdxID=7090;fillColor=#50e6ff;gradientColor=none;shape=stencil(lZHNDoMgEISfhisBVq2crX0PE7GQUjCI/Xn7QklTNTUNt9nZbyeEQdBMshsFYmTyzl7EXfVeIjgixpSRwikfFIIWQTNYJ87OzqZP89hFMqqrvcWER7orcUXjESPPZBDM6rdxSrhWZoEXfMsfAJf7PC8w8HX+PkwJWaG0wjXNecsn4CeelZ35LX/xIL4NDErrVOByv20sWKltaF8=);strokeColor=none;strokeWidth=48;spacingTop=-3;spacingBottom=-3;spacingLeft=-3;spacingRight=-3;points=[];labelBackgroundColor=none;rounded=0;html=1;whiteSpace=wrap;" parent="9cTyA-aqXEUwl1eb3d1F-4" vertex="1">
          <mxGeometry y="44" width="84" height="33" as="geometry" />
        </mxCell>
        <mxCell id="9cTyA-aqXEUwl1eb3d1F-6" style="vsdxID=7091;fillColor=#FFFFFF;gradientColor=none;shape=stencil(UzV2Ls5ILEhVNTIoLinKz04tz0wpyVA1dlE1MsrMy0gtyiwBslSNXVWNndPyi1LTi/JL81Ig/IJEkEoQKze/DGRCBUSfAUiHkUElhGdmomdhDBZxgyjOycxDUmxiqWdiiaLBALdiQwMMsy0NSTEbZgBW5SS5m4BiIAMRPGmZOTmQ0EWWRw9OoBAkKoxdAQ==);strokeColor=none;strokeWidth=48;spacingTop=-3;spacingBottom=-3;spacingLeft=-3;spacingRight=-3;points=[];labelBackgroundColor=none;rounded=0;html=1;whiteSpace=wrap;" parent="9cTyA-aqXEUwl1eb3d1F-4" vertex="1">
          <mxGeometry x="7" width="69" height="63" as="geometry" />
        </mxCell>
        <mxCell id="9cTyA-aqXEUwl1eb3d1F-7" style="vsdxID=7092;fillColor=#50e6ff;gradientColor=none;shape=stencil(UzV2Ls5ILEhVNTIoLinKz04tz0wpyVA1dlE1MsrMy0gtyiwBslSNXVWNndPyi1LTi/JL81Ig/IJEkEoQKze/DGRCBUSfoYEBSI+RQSWED+G5QZTmZObhUQrjY1WMqtTMRM/CmHiTSXAEilIgA+HPtMycHEgwIcujhwtQCBKmxq4A);strokeColor=none;strokeWidth=48;spacingTop=-3;spacingBottom=-3;spacingLeft=-3;spacingRight=-3;points=[];labelBackgroundColor=none;rounded=0;html=1;whiteSpace=wrap;" parent="9cTyA-aqXEUwl1eb3d1F-4" vertex="1">
          <mxGeometry x="7" width="34" height="63" as="geometry" />
        </mxCell>
        <mxCell id="9cTyA-aqXEUwl1eb3d1F-8" style="vsdxID=7093;fillColor=#1988d9;gradientColor=#54aef0;shape=stencil(UzV2Ls5ILEhVNTIoLinKz04tz0wpyVA1dlE1MsrMy0gtyiwBslSNXVWNndPyi1LTi/JL81Ig/IJEkEoQKze/DGRCBUSfAUiHkUElMs8NojAnMw+nQkMDPEphkjDFZiZ6lobEmky0E1AUAhkIH6Zl5uRAAghZHj1EgEKQ0DR2BQA=);strokeColor=none;strokeWidth=48;spacingTop=-3;spacingBottom=-3;spacingLeft=-3;spacingRight=-3;points=[];labelBackgroundColor=none;rounded=0;html=1;whiteSpace=wrap;" parent="9cTyA-aqXEUwl1eb3d1F-4" vertex="1">
          <mxGeometry x="42" width="35" height="63" as="geometry" />
        </mxCell>
        <mxCell id="9cTyA-aqXEUwl1eb3d1F-9" style="vsdxID=7094;fillColor=#53b1e0;gradientColor=none;shape=stencil(UzV2Ls5ILEhVNTIoLinKz04tz0wpyVA1dlE1MsrMy0gtyiwBslSNXVWNndPyi1LTi/JL81Ig/IJEkEoQKze/DGRCBUSfAUiHkUElMs8NojAnMw9JoaEBqlIjcz1jC9zKURXDNBOhlDyFQAbCh2mZOTmQAEKWRw8RoBAkNI1dAQ==);strokeColor=none;strokeWidth=48;spacingTop=-3;spacingBottom=-3;spacingLeft=-3;spacingRight=-3;points=[];labelBackgroundColor=none;rounded=0;html=1;whiteSpace=wrap;" parent="9cTyA-aqXEUwl1eb3d1F-4" vertex="1">
          <mxGeometry x="42" y="32" width="35" height="30" as="geometry" />
        </mxCell>
        <mxCell id="9cTyA-aqXEUwl1eb3d1F-10" style="vsdxID=7095;fillColor=#9cebff;gradientColor=none;shape=stencil(UzV2Ls5ILEhVNTIoLinKz04tz0wpyVA1dlE1MsrMy0gtyiwBslSNXVWNndPyi1LTi/JL81Ig/IJEkEoQKze/DGRCBUSfoYEBSI+RQSUq3w2iOCczD0kxqlIjcz0jY9yK0U3GYy5JjiCgGMhA+DUtMycHElTI8uhhAxSChKuxKwA=);strokeColor=none;strokeWidth=48;spacingTop=-3;spacingBottom=-3;spacingLeft=-3;spacingRight=-3;points=[];labelBackgroundColor=none;rounded=0;html=1;whiteSpace=wrap;" parent="9cTyA-aqXEUwl1eb3d1F-4" vertex="1">
          <mxGeometry x="7" y="32" width="34" height="30" as="geometry" />
        </mxCell>
        <mxCell id="9cTyA-aqXEUwl1eb3d1F-11" style="vsdxID=7096;fillColor=#54aef0;gradientColor=#1988d9;shape=stencil(jZHBDsIgEES/Zq+EsrHlXut/NCktRISGYtW/F7JRWxOJtx32zWQzALaL7mcFgi8x+LO6mSFqwCMIYZxWwcQ0AXaA7eiDmoK/uoH03GcyTxe/5oQ7+Xh2CP4gVXHSJ0KtcRv0tXzDNZPVb1xKJuudoZC9T26QHf5liycX0TR8WhmNtVTqdv/dYnqiH8DuCQ==);strokeColor=none;strokeWidth=48;spacingTop=-3;spacingBottom=-3;spacingLeft=-3;spacingRight=-3;points=[];labelBackgroundColor=none;rounded=0;html=1;whiteSpace=wrap;" parent="9cTyA-aqXEUwl1eb3d1F-4" vertex="1">
          <mxGeometry x="42" y="44" width="42" height="33" as="geometry" />
        </mxCell>
        <UserObject label="&lt;div style=&quot;font-size: 1px&quot;&gt;&lt;font style=&quot;font-size:11.29px;font-family:Segoe UI Semibold;color:#FFFFFF;direction:ltr;letter-spacing:0px;line-height:120%;opacity:1&quot;&gt;&lt;b&gt;Audit Logs&lt;br/&gt;&lt;/b&gt;&lt;/font&gt;&lt;/div&gt;" tags="Background" id="9cTyA-aqXEUwl1eb3d1F-12">
          <mxCell style="verticalAlign=middle;align=center;overflow=width;vsdxID=7104;fillColor=#41719c;gradientColor=none;shape=stencil(nZBLDoAgDERP0z3SIyjew0SURgSD+Lu9kMZoXLhwN9O+tukAlrNpJg1SzDH4QW/URgNYgZTkjA4UkwJUgGXng+6DX1zLfmoymdXo17xh5zmRJ6Q42BWCfc2oJfdAr+Yv+AP9Cb7OJ3H/2JG1HNGz/84klThPVCc=);strokeColor=none;points=[];labelBackgroundColor=none;rounded=0;html=1;whiteSpace=wrap;" parent="1" vertex="1">
            <mxGeometry x="248" y="909" width="119" height="30" as="geometry" />
          </mxCell>
        </UserObject>
        <UserObject label="&lt;div style=&quot;font-size: 1px&quot;&gt;&lt;font style=&quot;font-size:11.29px;font-family:Segoe UI Semibold;color:#FFFFFF;direction:ltr;letter-spacing:0px;line-height:120%;opacity:1&quot;&gt;&lt;b&gt;SignIn Logs&lt;br/&gt;&lt;/b&gt;&lt;/font&gt;&lt;/div&gt;" tags="Background" id="9cTyA-aqXEUwl1eb3d1F-13">
          <mxCell style="verticalAlign=middle;align=center;overflow=width;vsdxID=7105;fillColor=#41719c;gradientColor=none;shape=stencil(nZBLDoAgDERP0z3SIyjew0SURgSD+Lu9kMZoXLhwN9O+tukAlrNpJg1SzDH4QW/URgNYgZTkjA4UkwJUgGXng+6DX1zLfmoymdXo17xh5zmRJ6Q42BWCfc2oJfdAr+Yv+AP9Cb7OJ3H/2JG1HNGz/84klThPVCc=);strokeColor=none;points=[];labelBackgroundColor=none;rounded=0;html=1;whiteSpace=wrap;" parent="1" vertex="1">
            <mxGeometry x="248" y="949" width="119" height="30" as="geometry" />
          </mxCell>
        </UserObject>
        <UserObject label="&lt;div style=&quot;font-size: 1px&quot;&gt;&lt;font style=&quot;font-size:11.29px;font-family:Segoe UI Semibold;color:#FFFFFF;direction:ltr;letter-spacing:0px;line-height:120%;opacity:1&quot;&gt;&lt;b&gt;Managed Identity Logs&lt;br/&gt;&lt;/b&gt;&lt;/font&gt;&lt;/div&gt;" tags="Background" id="9cTyA-aqXEUwl1eb3d1F-14">
          <mxCell style="verticalAlign=middle;align=center;overflow=width;vsdxID=7106;fillColor=#41719c;gradientColor=none;shape=stencil(nZBLDoAgDERP0z3SIyjew0SURgSD+Lu9kMZoXLhwN9O+tukAlrNpJg1SzDH4QW/URgNYgZTkjA4UkwJUgGXng+6DX1zLfmoymdXo17xh5zmRJ6Q42BWCfc2oJfdAr+Yv+AP9Cb7OJ3H/2JG1HNGz/84klThPVCc=);strokeColor=none;points=[];labelBackgroundColor=none;rounded=0;html=1;whiteSpace=wrap;" parent="1" vertex="1">
            <mxGeometry x="248" y="989" width="119" height="30" as="geometry" />
          </mxCell>
        </UserObject>
        <UserObject label="&lt;div style=&quot;font-size: 1px&quot;&gt;&lt;font style=&quot;font-size:11.29px;font-family:Segoe UI Semibold;color:#FFFFFF;direction:ltr;letter-spacing:0px;line-height:120%;opacity:1&quot;&gt;&lt;b&gt;Service Principal Logs&lt;br/&gt;&lt;/b&gt;&lt;/font&gt;&lt;/div&gt;" tags="Background" id="9cTyA-aqXEUwl1eb3d1F-15">
          <mxCell style="verticalAlign=middle;align=center;overflow=width;vsdxID=7107;fillColor=#41719c;gradientColor=none;shape=stencil(nZBLDoAgDERP0z3SIyjew0SURgSD+Lu9kMZoXLhwN9O+tukAlrNpJg1SzDH4QW/URgNYgZTkjA4UkwJUgGXng+6DX1zLfmoymdXo17xh5zmRJ6Q42BWCfc2oJfdAr+Yv+AP9Cb7OJ3H/2JG1HNGz/84klThPVCc=);strokeColor=none;points=[];labelBackgroundColor=none;rounded=0;html=1;whiteSpace=wrap;" parent="1" vertex="1">
            <mxGeometry x="248" y="1029" width="119" height="30" as="geometry" />
          </mxCell>
        </UserObject>
        <UserObject label="&lt;div style=&quot;font-size: 1px&quot;&gt;&lt;font style=&quot;font-size:11.29px;font-family:Segoe UI Semibold;color:#FFFFFF;direction:ltr;letter-spacing:0px;line-height:120%;opacity:1&quot;&gt;&lt;b&gt;NonInteractive Logs&lt;br/&gt;&lt;/b&gt;&lt;/font&gt;&lt;/div&gt;" tags="Background" id="9cTyA-aqXEUwl1eb3d1F-16">
          <mxCell style="verticalAlign=middle;align=center;overflow=width;vsdxID=7108;fillColor=#41719c;gradientColor=none;shape=stencil(nZBLDoAgDERP0z3SIyjew0SURgSD+Lu9kMZoXLhwN9O+tukAlrNpJg1SzDH4QW/URgNYgZTkjA4UkwJUgGXng+6DX1zLfmoymdXo17xh5zmRJ6Q42BWCfc2oJfdAr+Yv+AP9Cb7OJ3H/2JG1HNGz/84klThPVCc=);strokeColor=none;points=[];labelBackgroundColor=none;rounded=0;html=1;whiteSpace=wrap;" parent="1" vertex="1">
            <mxGeometry x="248" y="1069" width="119" height="30" as="geometry" />
          </mxCell>
        </UserObject>
        <UserObject label="&lt;div style=&quot;font-size: 1px&quot;&gt;&lt;font style=&quot;font-size:11.29px;font-family:Segoe UI Semibold;color:#FFFFFF;direction:ltr;letter-spacing:0px;line-height:120%;opacity:1&quot;&gt;&lt;b&gt;Service Principal Logs&lt;br/&gt;&lt;/b&gt;&lt;/font&gt;&lt;/div&gt;" tags="Background" id="9cTyA-aqXEUwl1eb3d1F-17">
          <mxCell style="verticalAlign=middle;align=center;overflow=width;vsdxID=7109;fillColor=#41719c;gradientColor=none;shape=stencil(nZBLDoAgDERP0z3SIyjew0SURgSD+Lu9kMZoXLhwN9O+tukAlrNpJg1SzDH4QW/URgNYgZTkjA4UkwJUgGXng+6DX1zLfmoymdXo17xh5zmRJ6Q42BWCfc2oJfdAr+Yv+AP9Cb7OJ3H/2JG1HNGz/84klThPVCc=);strokeColor=none;points=[];labelBackgroundColor=none;rounded=0;html=1;whiteSpace=wrap;" parent="1" vertex="1">
            <mxGeometry x="248" y="1109" width="119" height="30" as="geometry" />
          </mxCell>
        </UserObject>
        <UserObject label="&lt;div style=&quot;font-size: 1px&quot;&gt;&lt;font style=&quot;font-size:11.29px;font-family:Segoe UI Semibold;color:#FFFFFF;direction:ltr;letter-spacing:0px;line-height:120%;opacity:1&quot;&gt;&lt;b&gt;Provisioning Logs&lt;br/&gt;&lt;/b&gt;&lt;/font&gt;&lt;/div&gt;" tags="Background" id="9cTyA-aqXEUwl1eb3d1F-18">
          <mxCell style="verticalAlign=middle;align=center;overflow=width;vsdxID=7110;fillColor=#41719c;gradientColor=none;shape=stencil(nZBLDoAgDERP0z3SIyjew0SURgSD+Lu9kMZoXLhwN9O+tukAlrNpJg1SzDH4QW/URgNYgZTkjA4UkwJUgGXng+6DX1zLfmoymdXo17xh5zmRJ6Q42BWCfc2oJfdAr+Yv+AP9Cb7OJ3H/2JG1HNGz/84klThPVCc=);strokeColor=none;points=[];labelBackgroundColor=none;rounded=0;html=1;whiteSpace=wrap;" parent="1" vertex="1">
            <mxGeometry x="248" y="1149" width="119" height="30" as="geometry" />
          </mxCell>
        </UserObject>
        <UserObject label="" tags="Background" id="9cTyA-aqXEUwl1eb3d1F-19">
          <mxCell style="vsdxID=7631;rotation=270;fillColor=#0070c0;gradientColor=none;shape=stencil(nZBLDoAgDERP0z3SIyjew0SURgSD+Lu9kMZoXLhwN9O+tukAlrNpJg1SzDH4QW/URgNYgZTkjA4UkwJUgGXng+6DX1zLfmoymdXo17xh5zmRJ6Q42BWCfc2oJfdAr+Yv+AP9Cb7OJ3H/2JG1HNGz/84klThPVCc=);strokeColor=none;points=[];labelBackgroundColor=none;rounded=0;html=1;whiteSpace=wrap;" parent="1" vertex="1">
            <mxGeometry x="357" y="960" width="282" height="180" as="geometry" />
          </mxCell>
        </UserObject>
        <UserObject label="&lt;div style=&quot;font-size: 1px&quot;&gt;&lt;font style=&quot;font-size:14.11px;font-family:Segoe UI Semibold;color:#ffffff;direction:ltr;letter-spacing:0px;line-height:120%;opacity:1&quot;&gt;&lt;b&gt;Azure Sentinel&lt;br/&gt;&lt;/b&gt;&lt;/font&gt;&lt;/div&gt;" tags="Background" id="9cTyA-aqXEUwl1eb3d1F-20">
          <mxCell style="verticalAlign=middle;align=center;overflow=width;vsdxID=7632;fillColor=none;gradientColor=none;shape=stencil(nZBLDoAgDERP0z3SIyjew0SURgSD+Lu9kMZoXLhwN9O+tukAlrNpJg1SzDH4QW/URgNYgZTkjA4UkwJUgGXng+6DX1zLfmoymdXo17xh5zmRJ6Q42BWCfc2oJfdAr+Yv+AP9Cb7OJ3H/2JG1HNGz/84klThPVCc=);strokeColor=none;points=[];labelBackgroundColor=none;rounded=0;html=1;whiteSpace=wrap;" parent="1" vertex="1">
            <mxGeometry x="417" y="1125" width="180" height="20" as="geometry" />
          </mxCell>
        </UserObject>
        <UserObject label="&lt;div style=&quot;font-size: 1px&quot;&gt;&lt;font style=&quot;font-size:14.11px;font-family:Segoe UI Semibold;color:#ffffff;direction:ltr;letter-spacing:0px;line-height:120%;opacity:1&quot;&gt;&lt;b&gt;Azure Storage&lt;br/&gt;&lt;/b&gt;&lt;/font&gt;&lt;/div&gt;" tags="Background" id="9cTyA-aqXEUwl1eb3d1F-28">
          <mxCell style="verticalAlign=middle;align=center;overflow=width;vsdxID=7640;fillColor=none;gradientColor=none;shape=stencil(nZBLDoAgDERP0z3SIyjew0SURgSD+Lu9kMZoXLhwN9O+tukAlrNpJg1SzDH4QW/URgNYgZTkjA4UkwJUgGXng+6DX1zLfmoymdXo17xh5zmRJ6Q42BWCfc2oJfdAr+Yv+AP9Cb7OJ3H/2JG1HNGz/84klThPVCc=);strokeColor=none;points=[];labelBackgroundColor=none;rounded=0;html=1;whiteSpace=wrap;" parent="1" vertex="1">
            <mxGeometry x="408" y="994" width="180" height="20" as="geometry" />
          </mxCell>
        </UserObject>
        <UserObject label="" tags="Background" id="9cTyA-aqXEUwl1eb3d1F-49">
          <mxCell style="vsdxID=7672;fillColor=none;gradientColor=none;strokeColor=none;spacingTop=-3;spacingBottom=-3;spacingLeft=-3;spacingRight=-3;points=[];labelBackgroundColor=none;rounded=0;html=1;whiteSpace=wrap;" parent="1" vertex="1">
            <mxGeometry x="451" y="1059" width="45" height="55" as="geometry" />
          </mxCell>
        </UserObject>
        <mxCell id="9cTyA-aqXEUwl1eb3d1F-50" style="vsdxID=7673;fillColor=#1b93eb;gradientColor=none;shape=stencil(vZRRb4QgDMc/jY8SoALH8+32PcgdKpnTC3o79+2Hg5tWM5cs2d7g39KWX5tmcOxrc7UZp/3guxd7d5ehzuAp49y1tfVuCKcMThkcy87byne39hLvVzN5TqfX7m2KMMZ3jNLpDafv8V5IIvWn8hzdzzcf/dn6QRIUECGjNPIoSUpEckqKFoQnH4iKYERDckqS1kSyZW7jz8HsU6lA6CE+8KlYTkSRoqbqD0QW6D9zTDrmZnR97rvBDK5roz19pjG+snnIl5eNqZCpv1t7Xchsjw5oojTms/g6R4EfbCaAmA3FXDY9aVy7aCFuICsIiD2IrNhA1Ahi4KxwSEaU/EeGxVwA+6qAMQyRK0yRrsZrxZDuZVSA01GcSop5VPm2oMf0ynn2YA3ut70I46vYN/39k2bg0fpxO4TDvFlK1zRxMS3t600UpLjF4PQB);strokeColor=none;strokeWidth=48;spacingTop=-3;spacingBottom=-3;spacingLeft=-3;spacingRight=-3;points=[];labelBackgroundColor=none;rounded=0;html=1;whiteSpace=wrap;" parent="9cTyA-aqXEUwl1eb3d1F-49" vertex="1">
          <mxGeometry width="45" height="55" as="geometry" />
        </mxCell>
        <mxCell id="9cTyA-aqXEUwl1eb3d1F-51" style="vsdxID=7674;fillColor=#1b93eb;gradientColor=none;shape=stencil(vZTNcoIwEMefhiM7yS4Ecrb6HhlFzZSCE7DSt29ogma1taf2Fv77/VtmM1oNR3NqMhTD6PrX5mJ34zGjlwzRdsfG2dG/MlpntNr3rjm4/tztwvfJzJ7z661/nzNMIU5r0DhHofgISqGg/hI2wX97diFAPkZEqSJQOkgTBkkJwMUrSroErKIXBamUoGT0omt6hWl947be7GK/BLIMAS72i1AuWeMANRAf6ZZTTLmZ7JC7fjSj7btgF8HWGndocl8v37fmwEzDpWlOiSyfESINFQeUjo4s8QInRUjcg77fS2u7ZI+CDSwLqPQziHGABKIiBhFB1zylhOo/GRLUxCH6DoTkEFFBUXGQgkMs/N+qOEjxrK7fQ1HyuoLXVOraxlLTd3b/Z2sFuuR1bwR/WsrDThbgMYF42DLWf7cS/oP9fij843Zl9rZtw5FK7fdXyUvhotH6Ew==);strokeColor=none;strokeWidth=48;spacingTop=-3;spacingBottom=-3;spacingLeft=-3;spacingRight=-3;points=[];labelBackgroundColor=none;rounded=0;html=1;whiteSpace=wrap;" parent="9cTyA-aqXEUwl1eb3d1F-49" vertex="1">
          <mxGeometry x="2" y="2" width="41" height="51" as="geometry" />
        </mxCell>
        <mxCell id="9cTyA-aqXEUwl1eb3d1F-52" style="vsdxID=7675;fillColor=#c3f1ff;gradientColor=none;shape=stencil(xZTbcoMgEIafhkt3OIjCdZq+B9OgMrXioGns2xcK00rSpL2Ik7tlD/DtzvIjtps6NWpE8TQ7+6pP5jB3iD0hSs3QaWdmbyG2R2zXWKdbZ4/DIZ5HFTKD9Wbfww1LrOM4lFD8EY8lB0K+PM8xW7kXH3Upm9bAy1jgUgXngGV0paS6BsKzWyUFljxLoRYzFc7OajZ2iPHE0CvX6sK/WDS9arPQdNJ6XLlvMJZQyRxRAhMZoSAgyoyQYHxXPrzm682wmrjkEGK/PH6tHXHRTp218w2fEoQEUW3XTs7HMdCzeXse4PlOPBDwHwMsoRaPWgcigFR3XQdKQWz9/24QBo1glxqRM16VnU0EIp/4X5LnjR+1bEzfR7Fdx8/V1buiMrP9Jw==);strokeColor=none;strokeWidth=48;spacingTop=-3;spacingBottom=-3;spacingLeft=-3;spacingRight=-3;points=[];labelBackgroundColor=none;rounded=0;html=1;whiteSpace=wrap;" parent="9cTyA-aqXEUwl1eb3d1F-49" vertex="1">
          <mxGeometry x="5" y="12" width="34" height="17" as="geometry" />
        </mxCell>
        <mxCell id="9cTyA-aqXEUwl1eb3d1F-53" style="vsdxID=7676;fillColor=#FFFFFF;gradientColor=none;shape=stencil(vVHLDsIgEPwajiQI6RfU+h8bu22JCGRB2/69kG1iazx58DazM/vIjjBtmiCi0CplCjecbZ8nYc5Ca+snJJsLEqYTph0C4Ujh4XvmEaqzont41gkL96naodXKrGF6YSfQtUi0OXXDVlqPfJNP6usotUhYbJIUMmQb/GGrAxpRljVycDBuc1hKM2LclX8/7H9nFfB+82Cd45T2+mcspcSRmu4F);strokeColor=none;strokeWidth=48;spacingTop=-3;spacingBottom=-3;spacingLeft=-3;spacingRight=-3;points=[];labelBackgroundColor=none;rounded=0;html=1;whiteSpace=wrap;" parent="9cTyA-aqXEUwl1eb3d1F-49" vertex="1">
          <mxGeometry x="16" y="22" width="12" height="12" as="geometry" />
        </mxCell>
        <UserObject label="" tags="Background" id="9cTyA-aqXEUwl1eb3d1F-54">
          <mxCell style="vsdxID=7677;fillColor=none;gradientColor=none;strokeColor=none;spacingTop=-3;spacingBottom=-3;spacingLeft=-3;spacingRight=-3;points=[];labelBackgroundColor=none;rounded=0;html=1;whiteSpace=wrap;" parent="1" vertex="1">
            <mxGeometry x="505" y="1057.5" width="51" height="51" as="geometry" />
          </mxCell>
        </UserObject>
        <mxCell id="9cTyA-aqXEUwl1eb3d1F-55" style="vsdxID=7678;fillColor=none;gradientColor=none;strokeColor=none;spacingTop=-3;spacingBottom=-3;spacingLeft=-3;spacingRight=-3;points=[];labelBackgroundColor=none;rounded=0;html=1;whiteSpace=wrap;" parent="9cTyA-aqXEUwl1eb3d1F-54" vertex="1">
          <mxGeometry width="51" height="51" as="geometry" />
        </mxCell>
        <mxCell id="9cTyA-aqXEUwl1eb3d1F-56" style="vsdxID=7679;fillColor=#a0a1a2;gradientColor=none;shape=stencil(pZTdDsIgDIWfhlvS0cTN6znfY8mYI86xsPn39g6JYUpEwLu2nANfgZRgOXX1yAmDaVbyyK+imTuCO8KYGDquxLxEBCuCZSsVPyh5HhqTj7VW6ugkL3qHm/GBdjC4mww3NMuelb0R92JYiVlO8+I/wwZpsf1ugHSxg+JrFGKYo8S2EsAcJYbQ5nJGdRrOHG3IwHMnkCp1MN6btA8cyG2/T7LBS+8CRcp/NGyXA/lfxyfKvfQuTKTcgVkCO5Va0fdmqK3XP6fYUjITEKsH);strokeColor=none;strokeWidth=17;spacingTop=-3;spacingBottom=-3;spacingLeft=-3;spacingRight=-3;points=[];labelBackgroundColor=none;rounded=0;html=1;whiteSpace=wrap;" parent="9cTyA-aqXEUwl1eb3d1F-55" vertex="1">
          <mxGeometry y="12" width="38" height="38" as="geometry" />
        </mxCell>
        <mxCell id="9cTyA-aqXEUwl1eb3d1F-57" style="vsdxID=7680;fillColor=#0072c6;gradientColor=none;shape=stencil(fZLdDoMgDIWfhlsDbRbjtXPvYSZOMqcGdcO3n6T+ABrvWvgO7SllmPZV3kkGvB90+5Y/VQwVwzsDUE0ltRrmiGHGMC1bLV+6HZuC8i63pI0+7de+YEh341YCfKKUsgeRz1ETKugSIOJiwYXLcwNeOsFBYNAn0Cu/FKxV47Tmdyb4BXq7ZEMfcRwlie9jVWxOtoPViyNavezMqZuw7I4f52mOVSZ/pgYDq3jyY5dT8cg52FeiVHVNG+Xehys0H9H6YfYH);strokeColor=none;strokeWidth=17;spacingTop=-3;spacingBottom=-3;spacingLeft=-3;spacingRight=-3;points=[];labelBackgroundColor=none;rounded=0;html=1;whiteSpace=wrap;" parent="9cTyA-aqXEUwl1eb3d1F-55" vertex="1">
          <mxGeometry x="14" width="37" height="37" as="geometry" />
        </mxCell>
        <mxCell id="9cTyA-aqXEUwl1eb3d1F-58" style="vsdxID=7681;fillColor=#FFFFFF;gradientColor=none;shape=stencil(pZPdDoMgDIWfhlsCRZF7597DRJxkTgzqft5+MrJMZoZT79rynea0pIilXZW3EgHpeqPP8qaKvkLsgABUU0mj+jFCLEMsLbWRJ6OHpnB5m1vSRhd9tR3uTkesAsjDZcAxT16Vo4Nr1UxgmmAe7xNQQn7jZCu6YGMB9jcSUUyFJ4jC3WOBBewTBEedG1qJL9j5Q+BvSABm/q8G7Ly9bkCDY85NrMS3w2PwOadS1bW7xun79/mNJXe6LHsC);strokeColor=none;strokeWidth=17;spacingTop=-3;spacingBottom=-3;spacingLeft=-3;spacingRight=-3;points=[];labelBackgroundColor=none;rounded=0;html=1;whiteSpace=wrap;" parent="9cTyA-aqXEUwl1eb3d1F-55" vertex="1">
          <mxGeometry x="21" y="11" width="18" height="16" as="geometry" />
        </mxCell>
        <UserObject label="" tags="Background" id="9cTyA-aqXEUwl1eb3d1F-59">
          <mxCell style="vsdxID=7079;edgeStyle=none;startArrow=classic;endArrow=none;startSize=2;endSize=2;strokeWidth=3;strokeColor=#7f7f7f;spacingTop=0;spacingBottom=0;spacingLeft=0;spacingRight=0;verticalAlign=middle;html=1;labelBackgroundColor=#FFFFFF;rounded=0;" parent="1" edge="1">
            <mxGeometry relative="1" as="geometry">
              <Array as="points" />
              <mxPoint x="248" y="929" as="sourcePoint" />
              <mxPoint x="208" y="929" as="targetPoint" />
            </mxGeometry>
          </mxCell>
        </UserObject>
        <UserObject label="" tags="Background" id="9cTyA-aqXEUwl1eb3d1F-60">
          <mxCell style="vsdxID=7080;edgeStyle=none;startArrow=classic;endArrow=none;startSize=2;endSize=2;strokeWidth=3;strokeColor=#7f7f7f;spacingTop=0;spacingBottom=0;spacingLeft=0;spacingRight=0;verticalAlign=middle;html=1;labelBackgroundColor=#FFFFFF;rounded=0;" parent="1" edge="1">
            <mxGeometry relative="1" as="geometry">
              <Array as="points" />
              <mxPoint x="248" y="969" as="sourcePoint" />
              <mxPoint x="208" y="969" as="targetPoint" />
            </mxGeometry>
          </mxCell>
        </UserObject>
        <UserObject label="" tags="Background" id="9cTyA-aqXEUwl1eb3d1F-61">
          <mxCell style="vsdxID=7081;edgeStyle=none;startArrow=classic;endArrow=none;startSize=2;endSize=2;strokeWidth=3;strokeColor=#7f7f7f;spacingTop=0;spacingBottom=0;spacingLeft=0;spacingRight=0;verticalAlign=middle;html=1;labelBackgroundColor=#FFFFFF;rounded=0;" parent="1" edge="1">
            <mxGeometry relative="1" as="geometry">
              <Array as="points" />
              <mxPoint x="248" y="1009" as="sourcePoint" />
              <mxPoint x="208" y="1009" as="targetPoint" />
            </mxGeometry>
          </mxCell>
        </UserObject>
        <UserObject label="" tags="Background" id="9cTyA-aqXEUwl1eb3d1F-62">
          <mxCell style="vsdxID=7082;edgeStyle=none;startArrow=classic;endArrow=none;startSize=2;endSize=2;strokeWidth=3;strokeColor=#7f7f7f;spacingTop=0;spacingBottom=0;spacingLeft=0;spacingRight=0;verticalAlign=middle;html=1;labelBackgroundColor=#FFFFFF;rounded=0;" parent="1" edge="1">
            <mxGeometry relative="1" as="geometry">
              <Array as="points" />
              <mxPoint x="248" y="1049" as="sourcePoint" />
              <mxPoint x="208" y="1049" as="targetPoint" />
            </mxGeometry>
          </mxCell>
        </UserObject>
        <UserObject label="" tags="Background" id="9cTyA-aqXEUwl1eb3d1F-63">
          <mxCell style="vsdxID=7083;edgeStyle=none;startArrow=classic;endArrow=none;startSize=2;endSize=2;strokeWidth=3;strokeColor=#7f7f7f;spacingTop=0;spacingBottom=0;spacingLeft=0;spacingRight=0;verticalAlign=middle;html=1;labelBackgroundColor=#FFFFFF;rounded=0;" parent="1" edge="1">
            <mxGeometry relative="1" as="geometry">
              <Array as="points" />
              <mxPoint x="248" y="1089" as="sourcePoint" />
              <mxPoint x="208" y="1089" as="targetPoint" />
            </mxGeometry>
          </mxCell>
        </UserObject>
        <UserObject label="" tags="Background" id="9cTyA-aqXEUwl1eb3d1F-64">
          <mxCell style="vsdxID=7084;edgeStyle=none;startArrow=classic;endArrow=none;startSize=2;endSize=2;strokeWidth=3;strokeColor=#7f7f7f;spacingTop=0;spacingBottom=0;spacingLeft=0;spacingRight=0;verticalAlign=middle;html=1;labelBackgroundColor=#FFFFFF;rounded=0;" parent="1" edge="1">
            <mxGeometry relative="1" as="geometry">
              <Array as="points" />
              <mxPoint x="248" y="1129" as="sourcePoint" />
              <mxPoint x="208" y="1129" as="targetPoint" />
            </mxGeometry>
          </mxCell>
        </UserObject>
        <UserObject label="" tags="Background" id="9cTyA-aqXEUwl1eb3d1F-65">
          <mxCell style="vsdxID=7085;edgeStyle=none;startArrow=classic;endArrow=none;startSize=2;endSize=2;strokeWidth=3;strokeColor=#7f7f7f;spacingTop=0;spacingBottom=0;spacingLeft=0;spacingRight=0;verticalAlign=middle;html=1;labelBackgroundColor=#FFFFFF;rounded=0;" parent="1" edge="1">
            <mxGeometry relative="1" as="geometry">
              <Array as="points" />
              <mxPoint x="248" y="1169" as="sourcePoint" />
              <mxPoint x="208" y="1169" as="targetPoint" />
            </mxGeometry>
          </mxCell>
        </UserObject>
        <UserObject label="" tags="Background" id="9cTyA-aqXEUwl1eb3d1F-66">
          <mxCell style="vsdxID=7338;edgeStyle=none;startArrow=classic;endArrow=none;startSize=2;endSize=2;strokeWidth=3;strokeColor=#7f7f7f;spacingTop=0;spacingBottom=0;spacingLeft=0;spacingRight=0;verticalAlign=middle;html=1;labelBackgroundColor=#FFFFFF;rounded=0;" parent="1" edge="1">
            <mxGeometry relative="1" as="geometry">
              <Array as="points" />
              <mxPoint x="408" y="929" as="sourcePoint" />
              <mxPoint x="368" y="929" as="targetPoint" />
            </mxGeometry>
          </mxCell>
        </UserObject>
        <UserObject label="" tags="Background" id="9cTyA-aqXEUwl1eb3d1F-67">
          <mxCell style="vsdxID=7339;edgeStyle=none;startArrow=classic;endArrow=none;startSize=2;endSize=2;strokeWidth=3;strokeColor=#7f7f7f;spacingTop=0;spacingBottom=0;spacingLeft=0;spacingRight=0;verticalAlign=middle;html=1;labelBackgroundColor=#FFFFFF;rounded=0;" parent="1" edge="1">
            <mxGeometry relative="1" as="geometry">
              <Array as="points" />
              <mxPoint x="408" y="967" as="sourcePoint" />
              <mxPoint x="368" y="967" as="targetPoint" />
            </mxGeometry>
          </mxCell>
        </UserObject>
        <UserObject label="" tags="Background" id="9cTyA-aqXEUwl1eb3d1F-68">
          <mxCell style="vsdxID=7340;edgeStyle=none;startArrow=classic;endArrow=none;startSize=2;endSize=2;strokeWidth=3;strokeColor=#7f7f7f;spacingTop=0;spacingBottom=0;spacingLeft=0;spacingRight=0;verticalAlign=middle;html=1;labelBackgroundColor=#FFFFFF;rounded=0;" parent="1" edge="1">
            <mxGeometry relative="1" as="geometry">
              <Array as="points" />
              <mxPoint x="408" y="1009" as="sourcePoint" />
              <mxPoint x="368" y="1009" as="targetPoint" />
            </mxGeometry>
          </mxCell>
        </UserObject>
        <UserObject label="" tags="Background" id="9cTyA-aqXEUwl1eb3d1F-69">
          <mxCell style="vsdxID=7341;edgeStyle=none;startArrow=classic;endArrow=none;startSize=2;endSize=2;strokeWidth=3;strokeColor=#7f7f7f;spacingTop=0;spacingBottom=0;spacingLeft=0;spacingRight=0;verticalAlign=middle;html=1;labelBackgroundColor=#FFFFFF;rounded=0;" parent="1" edge="1">
            <mxGeometry relative="1" as="geometry">
              <Array as="points" />
              <mxPoint x="408" y="1049" as="sourcePoint" />
              <mxPoint x="368" y="1049" as="targetPoint" />
            </mxGeometry>
          </mxCell>
        </UserObject>
        <UserObject label="" tags="Background" id="9cTyA-aqXEUwl1eb3d1F-70">
          <mxCell style="vsdxID=7342;edgeStyle=none;startArrow=classic;endArrow=none;startSize=2;endSize=2;strokeWidth=3;strokeColor=#7f7f7f;spacingTop=0;spacingBottom=0;spacingLeft=0;spacingRight=0;verticalAlign=middle;html=1;labelBackgroundColor=#FFFFFF;rounded=0;" parent="1" edge="1">
            <mxGeometry relative="1" as="geometry">
              <Array as="points" />
              <mxPoint x="408" y="1089" as="sourcePoint" />
              <mxPoint x="368" y="1089" as="targetPoint" />
            </mxGeometry>
          </mxCell>
        </UserObject>
        <UserObject label="" tags="Background" id="9cTyA-aqXEUwl1eb3d1F-71">
          <mxCell style="vsdxID=7343;edgeStyle=none;startArrow=classic;endArrow=none;startSize=2;endSize=2;strokeWidth=3;strokeColor=#7f7f7f;spacingTop=0;spacingBottom=0;spacingLeft=0;spacingRight=0;verticalAlign=middle;html=1;labelBackgroundColor=#FFFFFF;rounded=0;" parent="1" edge="1">
            <mxGeometry relative="1" as="geometry">
              <Array as="points" />
              <mxPoint x="408" y="1129" as="sourcePoint" />
              <mxPoint x="368" y="1129" as="targetPoint" />
            </mxGeometry>
          </mxCell>
        </UserObject>
        <UserObject label="" tags="Background" id="9cTyA-aqXEUwl1eb3d1F-72">
          <mxCell style="vsdxID=7344;edgeStyle=none;startArrow=classic;endArrow=none;startSize=2;endSize=2;strokeWidth=3;strokeColor=#7f7f7f;spacingTop=0;spacingBottom=0;spacingLeft=0;spacingRight=0;verticalAlign=middle;html=1;labelBackgroundColor=#FFFFFF;rounded=0;" parent="1" edge="1">
            <mxGeometry relative="1" as="geometry">
              <Array as="points" />
              <mxPoint x="408" y="1169" as="sourcePoint" />
              <mxPoint x="368" y="1169" as="targetPoint" />
            </mxGeometry>
          </mxCell>
        </UserObject>
        <mxCell id="9cTyA-aqXEUwl1eb3d1F-73" value="" style="image;aspect=fixed;html=1;points=[];align=center;fontSize=12;image=img/lib/azure2/storage/Storage_Accounts.svg;" parent="1" vertex="1">
          <mxGeometry x="465.5" y="935" width="65" height="52" as="geometry" />
        </mxCell>
      </root>
    </mxGraphModel>
  </diagram>
</mxfile>
